<svg xmlns="http://www.w3.org/2000/svg" xmlns:xlink="http://www.w3.org/1999/xlink" version="1.1" x="0px" y="0px" viewBox="0 0 100 125" enable-background="new 0 0 100 100" xml:space="preserve"><g><path d="M50,95C25.188,95,5,74.814,5,50C5,25.188,25.188,5,50,5c24.814,0,45,20.188,45,45C95,74.814,74.814,95,50,95z M50,8.83   C27.299,8.83,8.83,27.299,8.83,50c0,22.702,18.469,41.172,41.17,41.172c22.702,0,41.172-18.47,41.172-41.172   C91.172,27.299,72.702,8.83,50,8.83z"/></g><g><g><circle cx="49.999" cy="14.132" r="2.691"/><circle cx="49.999" cy="84.983" r="2.691"/></g><g><circle cx="14.574" cy="49.557" r="2.691"/><circle cx="85.426" cy="49.557" r="2.691"/></g></g><g><g><circle cx="24.95" cy="24.508" r="2.693"/><circle cx="75.05" cy="74.607" r="2.69"/></g><g><circle cx="24.95" cy="74.607" r="2.692"/><circle cx="75.05" cy="24.508" r="2.692"/></g></g><path d="M69.154,36.802c-0.746-0.748-1.961-0.748-2.707,0L50.875,52.374L32.596,34.095c-0.747-0.748-1.96-0.748-2.707,0  c-0.748,0.748-0.748,1.959,0,2.707l18.955,18.957c0.119,0.119,0.561,0.561,0.678,0.676c0.373,0.375,0.863,0.562,1.354,0.562  c0.488,0,0.98-0.188,1.355-0.562l16.924-16.924C69.904,38.763,69.904,37.549,69.154,36.802z"/><text x="0" y="115" fill="#000000" font-size="5px" font-weight="bold" font-family="'Helvetica Neue', Helvetica, Arial-Unicode, Arial, Sans-serif">Created by Federico Panzano</text><text x="0" y="120" fill="#000000" font-size="5px" font-weight="bold" font-family="'Helvetica Neue', Helvetica, Arial-Unicode, Arial, Sans-serif">from the Noun Project</text></svg>