<svg id="圖層_1" data-name="圖層 1" xmlns="http://www.w3.org/2000/svg" viewBox="0 0 72.07 74.19"><defs><style>.cls-1{fill:#a8a8a8;}.cls-2{fill:#e3a588;}.cls-3{fill:#eaa98b;}.cls-4,.cls-5{fill:#713f2c;}.cls-5{font-size:10.86px;font-family:HoboStd, Hobo Std;}</style></defs><title>logo-</title><path class="cls-1" d="M65.25,3.49A3.13,3.13,0,0,0,63,3,13.37,13.37,0,0,0,59.23,5c-.73.63-3.34,3.22-3.68,3.61s-2,2.56-2.8,3.56a5.73,5.73,0,0,0-2.41-.54A5.86,5.86,0,1,0,54,12.95a44.47,44.47,0,0,1,3.24-3.66,27.07,27.07,0,0,1,4.71-4c.93-.27,1.51.66,2.27.73a1.25,1.25,0,0,0,1.44-.88C65.77,4.66,65.74,3.73,65.25,3.49ZM50.89,16.85a2,2,0,1,1,2-2A2,2,0,0,1,50.89,16.85Z" transform="translate(2.07 -0.03)"/><path class="cls-1" d="M65.52,32.56,36.89,12.24a4.76,4.76,0,0,0-5.66.1l-27.46,21a4.74,4.74,0,0,0-.51,7,4.57,4.57,0,0,0,3,1.46,6.39,6.39,0,0,0,2.27,0c1.85-.32,6.2-4.78,7-5.76.56-.73,3.1-4.29,4.32-4.61,2.15-.54,3.85.73,5,1.76.71.63,1.76,1.61,2.46,1.51.41,0,.88-.49,1.34-1.24a59,59,0,0,0,3-5.56c.44-.88.8-1.61,1.15-2.22.73-1.27,2.2-2.78,3.9-2.85,2-.1,3.66,1.66,4.46,4.56.54,2,1.46,6.24,1.73,8,.32,2.17,1,3.41,1.49,3.66,0,0,.24.12.71-.12a17.34,17.34,0,0,0,4.61-3.68c.24-.27.46-.49.68-.71,2.24-2.2,4-3,5.41-2.46a5.35,5.35,0,0,1,3.8,4.56c.22,1.32,1,4.17,2.1,4.51a4.78,4.78,0,0,0,2.34,0C67.25,40.68,69.3,35.24,65.52,32.56Z" transform="translate(2.07 -0.03)"/><path class="cls-2" d="M64.33,2.56A3.13,3.13,0,0,0,62.11,2a13.37,13.37,0,0,0-3.8,2.07c-.73.63-3.34,3.22-3.68,3.61s-2,2.56-2.8,3.56a5.73,5.73,0,0,0-2.41-.54A5.86,5.86,0,1,0,53,12a44.47,44.47,0,0,1,3.24-3.66,27.07,27.07,0,0,1,4.71-4c.93-.27,1.51.66,2.27.73a1.25,1.25,0,0,0,1.44-.88C64.84,3.73,64.82,2.8,64.33,2.56ZM50,15.92a2,2,0,1,1,2-2A2,2,0,0,1,50,15.92Z" transform="translate(2.07 -0.03)"/><path class="cls-3" d="M64.6,31.63,36,11.31a4.76,4.76,0,0,0-5.66.1l-27.46,21a4.74,4.74,0,0,0-.51,7,4.57,4.57,0,0,0,3,1.46,6.39,6.39,0,0,0,2.27,0c1.85-.32,6.2-4.78,7-5.76.56-.73,3.1-4.29,4.32-4.61,2.15-.54,3.85.73,5,1.76.71.63,1.76,1.61,2.46,1.51.41,0,.88-.49,1.34-1.24a59,59,0,0,0,3-5.56c.44-.88.8-1.61,1.15-2.22.73-1.27,2.2-2.78,3.9-2.85,2-.1,3.66,1.66,4.46,4.56.54,2,1.46,6.24,1.73,8,.32,2.17,1,3.41,1.49,3.66,0,0,.24.12.71-.12a17.34,17.34,0,0,0,4.61-3.68c.24-.27.46-.49.68-.71,2.24-2.2,4-3,5.41-2.46a5.35,5.35,0,0,1,3.8,4.56c.22,1.32,1,4.17,2.1,4.51a4.78,4.78,0,0,0,2.34,0C66.33,39.75,68.38,34.31,64.6,31.63Z" transform="translate(2.07 -0.03)"/><path class="cls-4" d="M58.57,42.36a2,2,0,0,0-.32-.71,17.46,17.46,0,0,1-2.44-5.41c-.32-1.8-1.2-2.34-2-2.51-.46-.1-.9-.15-2.9,1.8-.2.2-.39.39-.61.63A19.69,19.69,0,0,1,45,40.36a3.19,3.19,0,0,1-3.1.15c-1.83-.93-2.56-3.54-2.88-5.59-.24-1.68-1.15-5.85-1.66-7.73-.46-1.68-1.32-2.68-1.83-2.66a3.13,3.13,0,0,0-1.8,1.56c-.32.54-.66,1.24-1.07,2.07a59.54,59.54,0,0,1-3.17,5.78,4.56,4.56,0,0,1-3.2,2.41c-1.9.24-3.44-1.15-4.54-2.15-1.37-1.24-2.1-1.27-2.59-1.15h0c-.44.17-3,3.8-3.27,4.22-1.2,1.76-4,3.24-6.32,5.1A2,2,0,0,0,8.86,44,10.39,10.39,0,0,0,9,45.24l5,22a6.4,6.4,0,0,0,5.29,4.9L15.6,44.75,22,72.24h2.83L21,43.09l6.8,29.15h2.61L26.77,45.63,33,72.24l7.73,0,4.44,2V58.8l-4.44-2v-.07h8V72.07a6.42,6.42,0,0,0,4.83-4.83l5-22A5.94,5.94,0,0,0,58.57,42.36ZM46.72,54.14c-2.17-.32-3.88-2.56-4.07-5.37h4.07Zm0-6.39H42.64c.2-2.8,1.9-5,4.07-5.37Zm1,6.39V48.78h4.07C51.62,51.58,49.91,53.83,47.74,54.14Zm0-6.39V42.39c2.17.32,3.88,2.56,4.07,5.37Z" transform="translate(2.07 -0.03)"/><text class="cls-5" transform="matrix(0.79, -0.61, 0.61, 0.79, 7.57, 29.06)">p</text><text class="cls-5" transform="matrix(0.79, -0.61, 0.61, 0.79, 12.09, 25.6)">i</text><text class="cls-5" transform="matrix(0.79, -0.61, 0.61, 0.79, 14.38, 23.85)">e</text><text class="cls-5" transform="translate(18.92 20.39) rotate(-37.38)">c</text><text class="cls-5" transform="translate(23.12 17.18) rotate(-37.38)">e</text><text class="cls-5" transform="translate(27.66 13.71) rotate(-37.38)"> </text><text class="cls-5" transform="translate(29.71 11.64) rotate(-28.22)">o</text><text class="cls-5" transform="matrix(1, 0.1, -0.1, 1, 33.93, 9.21)">f</text><text class="cls-5" transform="translate(37.08 9.51) rotate(27.59)"> </text><text class="cls-5" transform="translate(39.58 10.97) rotate(35.37)">c</text><text class="cls-5" transform="translate(54.54 21.59) rotate(35.37)"> </text><text class="cls-5" transform="translate(57.1 23.41) rotate(35.37)">k</text><text class="cls-5" transform="matrix(0.82, 0.58, -0.58, 0.82, 61.64, 26.63)">e</text></svg>