<?xml version="1.0" encoding="utf-8"?>
<!-- Generator: Adobe Illustrator 21.1.0, SVG Export Plug-In . SVG Version: 6.00 Build 0)  -->
<svg version="1.1" id="圖層_1" xmlns="http://www.w3.org/2000/svg" xmlns:xlink="http://www.w3.org/1999/xlink" x="0px" y="0px"
	 viewBox="0 0 595.3 841.9" style="enable-background:new 0 0 595.3 841.9;" xml:space="preserve">
<style type="text/css">
	.st0{fill:none;}
	.st1{fill:#A8A8A8;}
	.st2{fill:#E3A588;}
	.st3{fill:#EAA98B;}
	.st4{fill:#713F2C;}
</style>
<g>
	<path id="SVGID_x5F_1_x5F_" class="st0" d="M433.6,375.4c-3.2,0.6-6.7,0.9-10.5-0.3c-5.2-1.5-8.5-14.4-9.5-20.3
		c-2.4-13.7-10.4-18.2-17.2-20.6c-6.6-2.3-14.4,1.2-24.5,11.1c-0.9,0.9-2,2-3.1,3.2c-4.5,4.8-10.7,11.3-20.8,16.6
		c-2.1,1.1-3,0.7-3.2,0.6c-2.2-1.1-5.2-6.7-6.7-16.5c-1.2-8-5.3-27.3-7.8-36.2c-3.6-13.1-11.3-21.1-20.1-20.6
		c-7.7,0.4-14.3,7.2-17.7,12.9c-1.6,2.7-3.3,6.1-5.2,10c-3.4,7-7.7,15.6-13.7,25.1c-2.1,3.4-4.3,5.3-6.1,5.6
		c-3.2,0.5-7.9-3.9-11.1-6.8c-5-4.6-12.8-10.4-22.4-7.9c-5.5,1.4-17,17.5-19.5,20.8c-3.4,4.4-23,24.6-31.4,26c-4,0.7-7.5,0.5-10.3,0
		c-6.3-1.3-9.6-2.6-13.4-6.7c-8-8.6-8.8-23.3,2.3-31.8l123.9-94.7c7.5-5.7,17.8-5.9,25.5-0.4L440.5,336
		C457.4,348.1,448.2,372.6,433.6,375.4z"/>
	<text>	<textPath  xlink:href="#SVGID_x5F_1_x5F_" startOffset="1130.3448%">
<tspan  style="fill:#6F3E2B; font-family:'HoboStd'; font-size:44.5881px;">piece of cke</tspan>	</textPath>
</text>
</g>
<g>
	<path class="st1" d="M431.6,218.2c-2-1-4.7-2.9-9.1-2.1c-4.4,0.8-14.1,7.1-15.6,8.5c-3,2.6-13.7,13.2-15.1,14.8
		c-1.6,1.8-8.3,10.5-11.5,14.6c-3-1.4-6.4-2.2-9.9-2.2c-13.2,0-24,10.7-24,24c0,13.2,10.7,24,24,24c13.2,0,24-10.7,24-24
		c0-7.6-3.6-14.4-9.1-18.8c2.2-2.8,7.4-9.1,13.3-15c8.1-8,17.4-15.7,19.3-16.2c3.8-1.1,6.2,2.7,9.3,3c3.3,0.3,5.3-1.4,5.9-3.6
		C433.7,223,433.6,219.2,431.6,218.2z M372.7,273c-4.5,0-8.2-3.7-8.2-8.2c0-4.5,3.7-8.2,8.2-8.2s8.2,3.7,8.2,8.2
		C380.9,269.3,377.2,273,372.7,273z"/>
	<path class="st1" d="M432.7,337.4l-117.4-83.3c-7-5-16.4-4.8-23.2,0.4l-112.6,86c-10.1,7.7-9.3,21.1-2.1,28.9
		c3.4,3.7,6.4,4.9,12.2,6c2.5,0.5,5.7,0.6,9.3,0c7.6-1.3,25.4-19.6,28.5-23.6c2.3-3,12.7-17.6,17.7-18.9c8.8-2.2,15.8,3,20.4,7.2
		c2.9,2.6,7.2,6.6,10.1,6.2c1.7-0.2,3.6-2,5.5-5.1c5.4-8.6,9.3-16.5,12.4-22.8c1.8-3.6,3.3-6.6,4.7-9.1c3-5.2,9-11.4,16-11.7
		c8-0.4,15,6.8,18.3,18.7c2.2,8.1,6,25.6,7.1,32.9c1.3,8.9,4.1,14,6.1,15c0.2,0.1,1,0.5,2.9-0.5c9.2-4.9,14.8-10.8,18.9-15.1
		c1-1.1,1.9-2,2.8-2.9c9.2-9,16.2-12.2,22.2-10.1c6.1,2.2,13.4,6.2,15.6,18.7c0.9,5.4,3.9,17.1,8.6,18.5c3.5,1,6.7,0.8,9.6,0.2
		C439.8,370.7,448.2,348.4,432.7,337.4z"/>
</g>
<path class="st2" d="M427.8,214.4c-2-1-4.7-2.9-9.1-2.1c-4.4,0.8-14.1,7.1-15.6,8.5c-3,2.6-13.7,13.2-15.1,14.8
	c-1.6,1.8-8.3,10.5-11.5,14.6c-3-1.4-6.4-2.2-9.9-2.2c-13.2,0-24,10.7-24,24c0,13.2,10.7,24,24,24c13.2,0,24-10.7,24-24
	c0-7.6-3.6-14.4-9.1-18.8c2.2-2.8,7.4-9.1,13.3-15c8.1-8,17.4-15.7,19.3-16.2c3.8-1.1,6.2,2.7,9.3,3c3.3,0.3,5.3-1.4,5.9-3.6
	C429.9,219.2,429.8,215.4,427.8,214.4z M368.9,269.2c-4.5,0-8.2-3.7-8.2-8.2c0-4.5,3.7-8.2,8.2-8.2s8.2,3.7,8.2,8.2
	C377.1,265.5,373.4,269.2,368.9,269.2z"/>
<path class="st3" d="M428.9,333.6l-117.4-83.3c-7-5-16.4-4.8-23.2,0.4l-112.6,86c-10.1,7.7-9.3,21.1-2.1,28.9
	c3.4,3.7,6.4,4.9,12.2,6c2.5,0.5,5.7,0.6,9.3,0c7.6-1.3,25.4-19.6,28.5-23.6c2.3-3,12.7-17.6,17.7-18.9c8.8-2.2,15.8,3,20.4,7.2
	c2.9,2.6,7.2,6.6,10.1,6.2c1.7-0.2,3.6-2,5.5-5.1c5.4-8.6,9.3-16.5,12.4-22.8c1.8-3.6,3.3-6.6,4.7-9.1c3-5.2,9-11.4,16-11.7
	c8-0.4,15,6.8,18.3,18.7c2.2,8.1,6,25.6,7.1,32.9c1.3,8.9,4.1,14,6.1,15c0.2,0.1,1,0.5,2.9-0.5c9.2-4.9,14.8-10.8,18.9-15.1
	c1-1.1,1.9-2,2.8-2.9c9.2-9,16.2-12.2,22.2-10.1c6.1,2.2,13.4,6.2,15.6,18.7c0.9,5.4,3.9,17.1,8.6,18.5c3.5,1,6.7,0.8,9.6,0.2
	C436,366.9,444.4,344.6,428.9,333.6z"/>
<path class="st4" d="M404.2,377.6c-0.2-1-0.7-2-1.3-2.9c-3.4-5.4-8.7-14.7-10-22.2c-1.3-7.4-4.9-9.6-8.1-10.3
	c-1.9-0.4-3.7-0.6-11.9,7.4c-0.8,0.8-1.6,1.6-2.5,2.6c-4.4,4.6-10.9,11.5-21.7,17.2c-5.6,3-10,2-12.7,0.6
	c-7.5-3.8-10.5-14.5-11.8-22.9c-1-6.9-4.7-24-6.8-31.7c-1.9-6.9-5.4-11-7.5-10.9c-1.8,0.1-5.1,2.6-7.4,6.4c-1.3,2.2-2.7,5.1-4.4,8.5
	c-3.2,6.5-7.3,14.7-13,23.7c-3.7,5.9-8.1,9.3-13.1,9.9c-7.8,1-14.1-4.7-18.6-8.8c-5.6-5.1-8.6-5.2-10.6-4.7c0,0,0,0,0,0
	c-1.8,0.7-12.3,15.6-13.4,17.3c-4.9,7.2-16.4,13.3-25.9,20.9c-2,1.6-3.2,4.1-3.1,6.7c0.1,1.7,0.3,3.3,0.6,5l20.6,90.3
	c2.4,10.7,11.2,18.5,21.7,20.1l-15.3-112.4l26.3,112.7h11.6L250,380.6l27.9,119.5h10.7l-14.8-109.1l25.5,109.1l31.7-0.1l18.2,8.2
	v-63.2l-18.2-8.2v-0.3h32.8v62.9c9.7-2.2,17.5-9.8,19.8-19.8l20.6-90.3C405.2,385.3,405.1,381.3,404.2,377.6z M355.6,425.9
	c-8.9-1.3-15.9-10.5-16.7-22h16.7V425.9z M355.6,399.7h-16.7c0.8-11.5,7.8-20.7,16.7-22V399.7z M359.8,425.9v-22h16.7
	C375.7,415.4,368.7,424.6,359.8,425.9z M359.8,399.7v-22c8.9,1.3,15.9,10.5,16.7,22H359.8z"/>
</svg>
