<?xml version="1.0" encoding="utf-8"?>
<!-- Generator: Adobe Illustrator 21.0.0, SVG Export Plug-In . SVG Version: 6.00 Build 0)  -->
<svg version="1.1" xmlns:x="&ns_extend;" xmlns:i="&ns_ai;" xmlns:graph="&ns_graphs;"
	 xmlns="http://www.w3.org/2000/svg" xmlns:xlink="http://www.w3.org/1999/xlink" x="0px" y="0px" viewBox="0 0 150 80"
	 style="enable-background:new 0 0 150 80;" xml:space="preserve">
<style type="text/css">
	.st0{display:none;}
	.st1{display:inline;fill:none;}
	.st2{display:inline;}
	.st3{fill:#713F2C;}
	.st4{font-family:'HoboStd';}
	.st5{font-size:10.8559px;}
	.st6{fill:#A8A8A8;}
	.st7{fill:#BC2A26;}
	.st8{fill:#F8ECC9;}
	.st9{fill:none;}
	.st10{font-family:'Lobster-Regular';}
	.st11{font-size:20.5612px;}
</style>
<metadata>
	<sfw  xmlns="&ns_sfw;">
		<slices>
			<slice  height="63" sliceID="279422942" width="133" x="1" y="-77"></slice>
		</slices>
		<sliceSourceBounds  bottomLeftOrigin="true" height="73.2" width="149.1" x="0.9" y="-78.2"></sliceSourceBounds>
		<optimizationSettings></optimizationSettings>
	</sfw>
</metadata>
<g id="圖層_1" class="st0">
	<path class="st1" d="M69.1,47.1c-0.8,0.1-1.6,0.2-2.6-0.1c-1.3-0.4-2.1-3.5-2.3-5c-0.6-3.3-2.5-4.4-4.2-5c-1.6-0.6-3.5,0.3-6,2.7
		c-0.2,0.2-0.5,0.5-0.7,0.8c-1.1,1.2-2.6,2.7-5.1,4c-0.5,0.3-0.7,0.2-0.8,0.1c-0.5-0.3-1.3-1.6-1.6-4c-0.3-2-1.3-6.6-1.9-8.8
		c-0.9-3.2-2.8-5.1-4.9-5c-1.9,0.1-3.5,1.7-4.3,3.1c-0.4,0.7-0.8,1.5-1.3,2.4c-0.8,1.7-1.9,3.8-3.3,6.1c-0.5,0.8-1,1.3-1.5,1.4
		c-0.8,0.1-1.9-0.9-2.7-1.6c-1.2-1.1-3.1-2.5-5.5-1.9c-1.3,0.3-4.1,4.3-4.7,5.1c-0.8,1.1-5.6,6-7.6,6.3c-1,0.2-1.8,0.1-2.5,0
		c-1.5-0.3-2.3-0.6-3.3-1.6C0.5,44,0.2,40.4,3,38.3l30.2-23c1.8-1.4,4.3-1.4,6.2-0.1l31.4,22.3C74.9,40.4,72.7,46.4,69.1,47.1z"/>
	<text transform="matrix(0.7946 -0.6071 0.6071 0.7946 8.5073 34.0894)" class="st2"><tspan x="0" y="0" class="st3 st4 st5">p</tspan><tspan x="5.7" y="0" class="st3 st4 st5" rotate="0">i</tspan><tspan x="8.6" y="0" class="st3 st4 st5" rotate="0">e</tspan><tspan x="14.3" y="0" class="st3 st4 st5" rotate="0">c</tspan><tspan x="19.6" y="0" class="st3 st4 st5" rotate="0">e</tspan><tspan x="25.3" y="0" class="st3 st4 st5" rotate="0"> </tspan><tspan x="28.2" y="-0.4" class="st3 st4 st5" rotate="9.2">o</tspan><tspan x="33" y="0.2" class="st3 st4 st5" rotate="42.9">f</tspan><tspan x="35.3" y="2.4" class="st3 st4 st5" rotate="65"> </tspan><tspan x="36.4" y="5.1" class="st3 st4 st5" rotate="72.7">c</tspan><tspan x="41.9" y="22.6" class="st3 st4 st5" rotate="72.7"> </tspan><tspan x="42.8" y="25.6" class="st3 st4 st5" rotate="72.7">k</tspan><tspan x="44.4" y="30.9" class="st3 st4 st5" rotate="72.7">e</tspan></text>
</g>
<g id="圖層_3">
	<path class="st6" d="M53.7,18.2c-0.4-0.2-0.9-0.6-1.8-0.4C51,18,49,19.2,48.7,19.5c-0.6,0.5-2.7,2.6-3,3c-0.3,0.4-1.7,2.1-2.3,2.9
		c-0.6-0.3-1.3-0.4-2-0.4c-2.6,0-4.8,2.1-4.8,4.8c0,2.6,2.1,4.8,4.8,4.8c2.6,0,4.8-2.1,4.8-4.8c0-1.5-0.7-2.9-1.8-3.8
		c0.4-0.6,1.5-1.8,2.7-3c1.6-1.6,3.5-3.1,3.9-3.2c0.8-0.2,1.2,0.5,1.9,0.6c0.7,0.1,1.1-0.3,1.2-0.7C54.1,19.2,54.1,18.4,53.7,18.2z
		 M41.9,29.2c-0.9,0-1.6-0.7-1.6-1.6c0-0.9,0.7-1.6,1.6-1.6c0.9,0,1.6,0.7,1.6,1.6C43.5,28.4,42.8,29.2,41.9,29.2z"/>
	<path class="st6" d="M53.9,42.1L30.4,25.4c-1.4-1-3.3-1-4.6,0.1L3.3,42.7c-2,1.5-1.9,4.2-0.4,5.8c0.7,0.7,1.3,1,2.4,1.2
		c0.5,0.1,1.1,0.1,1.9,0c1.5-0.3,5.1-3.9,5.7-4.7c0.5-0.6,2.5-3.5,3.5-3.8c1.8-0.4,3.2,0.6,4.1,1.4c0.6,0.5,1.4,1.3,2,1.2
		c0.3,0,0.7-0.4,1.1-1c1.1-1.7,1.9-3.3,2.5-4.6c0.4-0.7,0.7-1.3,0.9-1.8c0.6-1,1.8-2.3,3.2-2.3c1.6-0.1,3,1.4,3.7,3.7
		c0.4,1.6,1.2,5.1,1.4,6.6c0.3,1.8,0.8,2.8,1.2,3c0,0,0.2,0.1,0.6-0.1c1.8-1,3-2.2,3.8-3c0.2-0.2,0.4-0.4,0.6-0.6
		c1.8-1.8,3.2-2.4,4.4-2c1.2,0.4,2.7,1.2,3.1,3.7c0.2,1.1,0.8,3.4,1.7,3.7c0.7,0.2,1.3,0.2,1.9,0C55.3,48.7,57,44.3,53.9,42.1z"/>
	<path class="st7" d="M52.9,17.5c-0.4-0.2-0.9-0.6-1.8-0.4c-0.9,0.2-2.8,1.4-3.1,1.7c-0.6,0.5-2.7,2.6-3,3c-0.3,0.4-1.7,2.1-2.3,2.9
		c-0.6-0.3-1.3-0.4-2-0.4c-2.6,0-4.8,2.1-4.8,4.8c0,2.6,2.1,4.8,4.8,4.8c2.6,0,4.8-2.1,4.8-4.8c0-1.5-0.7-2.9-1.8-3.8
		c0.4-0.6,1.5-1.8,2.7-3c1.6-1.6,3.5-3.1,3.9-3.2c0.8-0.2,1.2,0.5,1.9,0.6c0.7,0.1,1.1-0.3,1.2-0.7C53.3,18.4,53.3,17.7,52.9,17.5z
		 M41.1,28.4c-0.9,0-1.6-0.7-1.6-1.6s0.7-1.6,1.6-1.6c0.9,0,1.6,0.7,1.6,1.6S42,28.4,41.1,28.4z"/>
	<path class="st8" d="M53.1,41.3L29.7,24.6c-1.4-1-3.3-1-4.6,0.1L2.5,41.9c-2,1.5-1.9,4.2-0.4,5.8c0.7,0.7,1.3,1,2.4,1.2
		C5,49,5.7,49,6.4,48.9c1.5-0.3,5.1-3.9,5.7-4.7c0.5-0.6,2.5-3.5,3.5-3.8c1.8-0.4,3.2,0.6,4.1,1.4c0.6,0.5,1.4,1.3,2,1.2
		c0.3,0,0.7-0.4,1.1-1c1.1-1.7,1.9-3.3,2.5-4.6c0.4-0.7,0.7-1.3,0.9-1.8c0.6-1,1.8-2.3,3.2-2.3c1.6-0.1,3,1.4,3.7,3.7
		c0.4,1.6,1.2,5.1,1.4,6.6c0.3,1.8,0.8,2.8,1.2,3c0,0,0.2,0.1,0.6-0.1c1.8-1,3-2.2,3.8-3c0.2-0.2,0.4-0.4,0.6-0.6
		c1.8-1.8,3.2-2.4,4.4-2c1.2,0.4,2.7,1.2,3.1,3.7c0.2,1.1,0.8,3.4,1.7,3.7c0.7,0.2,1.3,0.2,1.9,0C54.6,48,56.2,43.5,53.1,41.3z"/>
	<path class="st7" d="M48.2,50.1c0-0.2-0.1-0.4-0.3-0.6c-0.7-1.1-1.7-2.9-2-4.4c-0.3-1.5-1-1.9-1.6-2.1c-0.4-0.1-0.7-0.1-2.4,1.5
		c-0.2,0.2-0.3,0.3-0.5,0.5c-0.9,0.9-2.2,2.3-4.3,3.4c-1.1,0.6-2,0.4-2.5,0.1c-1.5-0.8-2.1-2.9-2.4-4.6c-0.2-1.4-0.9-4.8-1.4-6.3
		c-0.4-1.4-1.1-2.2-1.5-2.2c-0.4,0-1,0.5-1.5,1.3c-0.3,0.4-0.5,1-0.9,1.7c-0.6,1.3-1.5,2.9-2.6,4.7c-0.7,1.2-1.6,1.9-2.6,2
		c-1.6,0.2-2.8-0.9-3.7-1.8c-1.1-1-1.7-1-2.1-0.9l0,0c-0.4,0.1-2.5,3.1-2.7,3.5c-1,1.4-3.3,2.7-5.2,4.2c-0.4,0.3-0.6,0.8-0.6,1.3
		c0,0.3,0.1,0.7,0.1,1l4.1,18.1c0.5,2.1,2.2,3.7,4.3,4L13,52.1l5.3,22.5h2.3l-3.2-23.9l5.6,23.9h2.1l-3-21.8l5.1,21.8l6.3,0l3.6,1.6
		V63.6l-3.6-1.6v-0.1h6.6v12.6c1.9-0.4,3.5-2,4-4l4.1-18.1C48.4,51.6,48.4,50.8,48.2,50.1z M38.5,59.8c-1.8-0.3-3.2-2.1-3.3-4.4h3.3
		V59.8z M38.5,54.5h-3.3c0.2-2.3,1.6-4.1,3.3-4.4V54.5z M39.3,59.8v-4.4h3.3C42.5,57.7,41.1,59.5,39.3,59.8z M39.3,54.5v-4.4
		c1.8,0.3,3.2,2.1,3.3,4.4H39.3z"/>
	<rect id="_x3C_切片_x3E_" x="1" y="14" class="st9" width="133" height="63"/>
</g>
<g id="圖層_2">
	<text transform="matrix(1 0 0 1 51.2461 68.1338)" class="st7 st10 st11">piece of cake</text>
</g>
</svg>
